<svg width="30" height="30" viewBox="0 0 30 30" fill="none" xmlns="http://www.w3.org/2000/svg">
<g clip-path="url(#clip0_1_3378)">
<path d="M15.0659 1.37891C7.51157 1.37891 1.37109 7.50089 1.37109 15.0739C1.37109 22.6286 7.493 28.7688 15.0659 28.7688C22.6206 28.7688 28.7607 22.6469 28.7607 15.0739C28.7607 7.50089 22.6206 1.37891 15.0659 1.37891ZM15.0659 19.6141C12.554 19.6141 10.5071 17.5672 10.5071 15.0553C10.5071 12.5434 12.554 10.4965 15.0659 10.4965C17.5778 10.4965 19.6246 12.5434 19.6246 15.0553C19.6246 17.5862 17.5782 19.6141 15.0659 19.6141Z" fill="#EDB66B"/>
<path d="M8.88558 19.5346C8.54716 19.5346 8.26224 19.4098 8.04827 19.1962C7.54938 18.6795 7.56721 17.7891 7.60288 16.7381C7.62071 15.8295 7.65637 14.6894 7.2288 14.2444C7.13965 14.1374 6.96171 14.013 6.55197 13.9951H6.48065C6.03525 13.9951 5.71467 14.0843 5.53636 14.2801C5.18012 14.6541 5.23361 15.4915 5.26927 16.1683C5.32276 16.8808 5.35843 17.5045 4.94869 17.8608C4.64594 18.1457 4.2362 18.2883 3.7908 18.2883C2.91784 18.2883 1.88477 17.6828 1.54635 16.9703C1.51106 16.8986 1.49323 16.8451 1.49323 16.7738L1.4754 16.5955C1.42191 15.9187 1.35059 15.1705 1.35059 14.8499C1.35059 7.29699 7.49589 1.16943 15.0305 1.16943C22.5651 1.16943 28.7108 7.31482 28.7108 14.8499C28.7108 15.1527 28.693 15.4733 28.6752 15.7764C28.6038 16.7203 27.8378 17.4506 26.9118 17.4506C26.716 17.4506 26.502 17.415 26.3063 17.3437C25.4155 17.0052 24.6673 16.3641 23.9548 15.7403C22.9217 14.8317 21.9418 13.9948 20.5525 13.9591C19.6795 13.9413 18.8957 13.4602 18.4863 12.712C17.4889 10.8595 17.3641 10.7882 14.8526 10.7882C10.2214 10.7882 10.2214 13.3889 10.2214 14.244C10.2214 14.7251 10.2571 15.2414 10.2749 15.7403C10.364 17.201 10.4354 18.4833 9.81166 19.1427C9.6159 19.3924 9.27748 19.5346 8.88558 19.5346Z" fill="#86522C"/>
<path d="M15.0678 1.76118C22.2997 1.76118 28.1779 7.62164 28.1779 14.8714C28.1779 15.1742 28.16 15.4769 28.1422 15.7622C28.0887 16.4034 27.5545 16.8845 26.9669 16.8845C26.842 16.8845 26.6998 16.8666 26.575 16.8132C24.5798 16.065 23.2796 13.4464 20.6258 13.3933C19.9846 13.3755 19.3609 13.0192 19.0582 12.449C17.9359 10.3472 17.5619 10.2224 14.9077 10.2224C11.9507 10.2224 9.68845 11.2198 9.68845 14.2481C9.68845 16.4212 10.2408 18.9507 8.90464 18.9507C7.14125 18.9507 9.58147 13.4999 6.58924 13.4286H6.50009C3.59664 13.4286 5.19992 16.8845 4.59442 17.4543C4.38045 17.6505 4.11336 17.7214 3.82844 17.7214C3.11595 17.7214 2.33214 17.2225 2.11817 16.7418C2.08251 16.3678 1.99335 15.2455 1.99335 14.8714C1.95769 7.62164 7.83591 1.76118 15.0678 1.76118ZM15.0678 0.585449C7.19474 0.585449 0.799805 6.98047 0.799805 14.8536C0.799805 15.192 0.871128 15.958 0.92462 16.6527L0.942451 16.8306C0.960282 16.9733 0.995943 17.1155 1.04944 17.2404C1.49483 18.1665 2.70621 18.8793 3.81061 18.8793C4.39828 18.8793 4.93283 18.6832 5.3604 18.3091C5.98374 17.7571 5.93024 16.9376 5.87675 16.136C5.85892 15.7262 5.7876 14.8889 5.98374 14.6931C6.0194 14.6575 6.1795 14.5861 6.50009 14.5861H6.55358C6.60707 14.5861 6.76718 14.5861 6.82067 14.6396C7.08776 14.9067 7.0521 16.0825 7.03427 16.7236C6.9986 17.8459 6.98077 18.9146 7.63977 19.5915C7.96035 19.9299 8.40575 20.1082 8.90464 20.1082C9.45702 20.1082 9.93771 19.912 10.294 19.5205C11.0778 18.6832 11.0064 17.2939 10.9173 15.6905C10.8816 15.2095 10.8638 14.6931 10.8638 14.2299C10.8638 13.3747 10.8638 11.3621 14.9073 11.3621C17.1696 11.3621 17.1696 11.3621 18.0243 12.9832C18.5232 13.9271 19.5206 14.5152 20.5894 14.533C21.7651 14.5508 22.6202 15.2986 23.6176 16.1716C24.3836 16.8306 25.1674 17.5257 26.147 17.8819C26.3963 17.9711 26.6816 18.0246 26.9487 18.0246C28.1779 18.0246 29.2109 17.0624 29.2819 15.8157C29.2997 15.4951 29.3176 15.1567 29.3176 14.8361C29.3361 6.9983 22.9412 0.585449 15.0678 0.585449Z" fill="#4C2F1B"/>
<path d="M17.0317 27.6892C17.1309 27.9485 17.538 28.0336 17.9411 27.8791C18.3441 27.7249 18.5904 27.3898 18.4912 27.1305C18.3921 26.8712 17.9849 26.7865 17.5819 26.9407C17.1788 27.0952 16.9325 27.4303 17.0317 27.6892Z" fill="#E3A358"/>
<path d="M24.5415 22.8946C24.7149 23.3478 25.1369 23.6665 25.6484 23.7308C26.16 23.7947 26.683 23.5944 27.021 23.2055C27.3591 22.8162 27.4605 22.2972 27.287 21.844C27.1135 21.3904 26.6916 21.0721 26.18 21.0078C25.6685 20.9439 25.1451 21.1442 24.8071 21.5331C24.469 21.9224 24.368 22.4414 24.5415 22.8946Z" fill="#E3A358"/>
<path d="M11.5746 28.5489C11.748 29.0021 12.17 29.3208 12.6816 29.3851C13.1931 29.449 13.7165 29.2487 14.0545 28.8598C14.3926 28.4705 14.494 27.9515 14.3205 27.4983C14.147 27.0451 13.725 26.7264 13.2135 26.6621C12.702 26.5982 12.1786 26.7985 11.8405 27.1874C11.5025 27.5767 11.4011 28.0957 11.5746 28.5489Z" fill="#E3A358"/>
<path d="M8.71957 26.457C8.99186 26.5187 9.26452 26.4826 9.4354 26.3619C9.60591 26.2412 9.64826 26.0547 9.54647 25.8719C9.44469 25.6895 9.21437 25.5387 8.94208 25.477C8.66979 25.415 8.39713 25.4514 8.22625 25.5721C8.05574 25.6929 8.0134 25.8794 8.11518 26.0618C8.21659 26.2445 8.44728 26.395 8.71957 26.457Z" fill="#E3A358"/>
<path d="M14.5509 20.9224C14.7779 20.974 14.9993 20.9699 15.1319 20.9112C15.2645 20.8525 15.2879 20.7489 15.1939 20.6389C15.0996 20.529 14.9016 20.4294 14.6746 20.3778C14.4476 20.3262 14.2262 20.3302 14.0936 20.3889C13.961 20.4476 13.9376 20.5513 14.0316 20.6612C14.1259 20.7716 14.3239 20.8708 14.5509 20.9224Z" fill="#E3A358"/>
<path d="M4.29883 22.1999C4.47416 22.2396 4.64987 22.214 4.76057 22.133C4.87127 22.0516 4.89913 21.9272 4.83486 21.8065C4.77023 21.6854 4.62275 21.5866 4.44779 21.5468C4.27245 21.5071 4.09674 21.5323 3.98642 21.6137C3.87572 21.6947 3.84749 21.8195 3.91212 21.9402C3.97602 22.0609 4.12386 22.1601 4.29883 22.1999Z" fill="#E3A358"/>
<path d="M11.3572 19.6149C11.5883 19.7717 11.8335 19.8698 12.0006 19.872C12.1678 19.8742 12.2317 19.7802 12.1678 19.6257C12.1043 19.4708 11.9226 19.2791 11.6916 19.1223C11.4605 18.9656 11.2153 18.8675 11.0478 18.8653C10.8806 18.863 10.8171 18.957 10.8806 19.1116C10.9445 19.2665 11.1262 19.4582 11.3572 19.6149Z" fill="#E3A358"/>
<path d="M15.068 29.5613C7.07903 29.5613 0.580078 23.0623 0.580078 15.074C0.580078 7.08497 7.07903 0.585938 15.068 0.585938C23.0565 0.585938 29.5555 7.08497 29.5555 15.074C29.5555 23.0623 23.0562 29.5613 15.068 29.5613ZM15.068 2.17141C7.96388 2.17141 2.18448 7.95126 2.18448 15.0551C2.18448 22.1589 7.96425 27.9387 15.068 27.9387C22.1717 27.9387 27.9515 22.1592 27.9515 15.0551C27.9515 7.95089 22.1717 2.17141 15.068 2.17141ZM15.068 20.4252C12.117 20.4252 9.7165 18.0247 9.7165 15.074C9.7165 12.1129 12.117 9.7039 15.068 9.7039C18.0186 9.7039 20.4191 12.1044 20.4191 15.0554C20.4191 18.0161 18.0186 20.4252 15.068 20.4252ZM15.068 11.3076C13.0015 11.3076 11.3205 12.9889 11.3205 15.0551C11.3205 17.1212 13.0018 18.8025 15.068 18.8025C17.1341 18.8025 18.8154 17.1212 18.8154 15.0551C18.815 12.9889 17.1341 11.3076 15.068 11.3076Z" fill="#4C2F1B"/>
<path d="M15.8495 7.59121L12.7236 5.52579C12.5932 5.45112 12.5746 5.28395 12.6489 5.15356L13.0025 4.63275C13.0768 4.50236 13.2444 4.48379 13.3748 4.55808L16.5007 6.62351C16.6311 6.69818 16.6497 6.86571 16.575 6.99573L16.2214 7.51692C16.1474 7.64693 15.9799 7.66551 15.8495 7.59121Z" fill="#DB79AD"/>
<path d="M3.43673 10.8681L4.25546 9.08202C4.31118 8.95163 4.47872 8.89591 4.60911 8.95163L5.18601 9.21204C5.3164 9.26776 5.37212 9.43529 5.3164 9.56568L4.49767 11.3518C4.44157 11.4821 4.27441 11.5379 4.14402 11.4821L3.56712 11.2217C3.43673 11.1471 3.36244 10.9985 3.43673 10.8681ZM23.7557 10.7191L22.1925 9.50959C22.081 9.41672 22.0621 9.24918 22.1368 9.13737L22.5276 8.63513C22.6204 8.52368 22.788 8.50474 22.8998 8.57941L24.4629 9.78894C24.5744 9.88218 24.5933 10.0493 24.5187 10.1612L24.1279 10.6638C24.035 10.7938 23.8675 10.812 23.7557 10.7191Z" fill="#F6B173"/>
<path d="M19.8308 8.1904L18.7516 5.75275C18.6959 5.62236 18.7516 5.45483 18.882 5.3991L19.4585 5.1387C19.5889 5.08297 19.7565 5.1387 19.8122 5.26909L20.8913 7.70673C20.947 7.83712 20.8913 8.00429 20.7609 8.06038L20.184 8.32079C20.0544 8.37651 19.9054 8.32042 19.8308 8.1904ZM7.84771 12.7306L6.76858 10.293C6.71286 10.1626 6.76858 9.99542 6.89897 9.93933L7.47587 9.67892C7.60625 9.6232 7.77342 9.67892 7.82951 9.80931L8.90865 12.247C8.96437 12.3773 8.90865 12.5449 8.77826 12.6006L8.20136 12.861C8.05277 12.9353 7.90381 12.861 7.84771 12.7306Z" fill="#F7E774"/>
<path d="M8.35061 7.68816L9.46726 5.26909C9.52299 5.1387 9.69052 5.08297 9.82091 5.1387L10.3978 5.3991C10.5282 5.45483 10.5839 5.62236 10.5282 5.75275L9.41154 8.17183C9.35582 8.30222 9.18829 8.35794 9.0579 8.30222L8.481 8.04181C8.35061 7.98609 8.29489 7.83712 8.35061 7.68816ZM25.1528 13.7544L25.525 11.1121C25.5436 10.9631 25.674 10.8703 25.8229 10.8888L26.4555 10.9817C26.6045 11.0003 26.6974 11.1307 26.6788 11.2793L26.3066 13.9216C26.288 14.0702 26.1576 14.1634 26.009 14.1448L25.3764 14.052C25.2271 14.0334 25.1342 13.9034 25.1528 13.7544Z" fill="#EC6A69"/>
<path d="M6.96562 22.8563C7.09564 22.9232 7.24014 22.9373 7.3449 22.8938C7.44928 22.8504 7.49795 22.7556 7.47231 22.6453C7.44668 22.535 7.35047 22.4261 7.22045 22.3593C7.09044 22.2924 6.94593 22.2783 6.84118 22.3217C6.73679 22.3652 6.68813 22.4599 6.71376 22.5703C6.73939 22.6802 6.83523 22.7894 6.96562 22.8563Z" fill="#E3A358"/>
<path d="M20.6465 23.5107C20.6795 23.5976 20.8166 23.6374 21.005 23.6147C21.1937 23.5924 21.4058 23.5111 21.5611 23.4018C21.7163 23.2926 21.7917 23.1715 21.7587 23.0846C21.7252 22.9977 21.5885 22.9579 21.3998 22.9802C21.2111 23.0025 20.999 23.0835 20.8437 23.1931C20.6885 23.3027 20.613 23.4238 20.6465 23.5107Z" fill="#E3A358"/>
<path d="M12.2947 22.5379C12.4711 22.6683 12.6806 22.7259 12.8441 22.6891C13.0075 22.6523 13.1004 22.5268 13.087 22.3596C13.074 22.1928 12.9574 22.0093 12.7809 21.8789C12.6045 21.7485 12.395 21.6909 12.2315 21.7277C12.0681 21.7645 11.9752 21.89 11.9886 22.0572C12.0012 22.2248 12.1182 22.4079 12.2947 22.5379Z" fill="#E3A358"/>
<path d="M17.5086 25.0303C17.5298 25.183 17.7367 25.2804 17.9707 25.248C18.2051 25.2157 18.3775 25.0656 18.3563 24.913C18.3351 24.7603 18.1282 24.6626 17.8942 24.6953C17.6598 24.7276 17.4874 24.8777 17.5086 25.0303Z" fill="#E3A358"/>
</g>
<defs>
<clipPath id="clip0_1_3378">
<rect width="28.9754" height="28.9754" fill="white" transform="translate(0.580078 0.585938)"/>
</clipPath>
</defs>
</svg>
