<svg width="43" height="43" viewBox="0 0 43 43" fill="none" xmlns="http://www.w3.org/2000/svg">
<g clip-path="url(#clip0_1_3401)">
<path d="M22.7817 22.3701C17.608 27.2139 11.4116 28.2595 10.7232 28.3635C9.66321 28.5207 8.60374 28.2619 7.74225 27.6239C6.88049 26.9856 6.3144 26.0517 6.15818 24.9919C5.96147 23.6869 6.42123 22.3645 7.38626 21.461C7.97926 20.9058 8.71535 20.5499 9.52122 20.4235C9.69065 20.3966 13.8597 19.6976 17.2338 16.5386C19.2209 14.6783 20.5359 12.3286 21.1417 9.55656C21.3175 8.75723 21.7212 8.03989 22.3178 7.48138C23.2828 6.57788 24.6296 6.20288 25.9189 6.48501C26.9664 6.71033 27.8607 7.3369 28.4409 8.23878C29.0212 9.14067 29.2127 10.2181 28.9828 11.2625C28.0203 15.6814 25.9351 19.4177 22.7817 22.3701Z" fill="#F4A360"/>
<path d="M23.4237 23.0542C18.2433 27.9043 12.0522 29.1052 10.8636 29.2969C9.55695 29.4922 8.2489 29.167 7.18341 28.3806C6.11598 27.5927 5.42059 26.4388 5.22654 25.1307C4.9834 23.5193 5.55046 21.8904 6.74382 20.7731C7.47376 20.0897 8.3788 19.6445 9.36111 19.4857C9.3934 19.4819 13.3899 18.836 16.5853 15.8443C18.4278 14.1193 19.6491 11.9334 20.2151 9.34737C20.4305 8.36116 20.9335 7.47596 21.6696 6.78677C22.8629 5.6695 24.5257 5.21081 26.117 5.55941C27.4122 5.84373 28.5187 6.61326 29.2314 7.72611C29.946 8.84103 30.1844 10.1676 29.9027 11.4611C28.8977 16.0697 26.7179 19.97 23.4237 23.0542ZM8.02832 22.1451C7.29309 22.8334 6.93969 23.8436 7.08269 24.8474C7.33221 26.5234 8.89943 27.6814 10.5766 27.4301C10.8378 27.3916 17.0519 26.4391 22.133 21.682C25.1388 18.8677 27.1327 15.2947 28.0588 11.0625C28.2352 10.262 28.0887 9.43999 27.646 8.74925C27.2028 8.05791 26.5162 7.58071 25.7129 7.40602C24.7257 7.19148 23.6954 7.47628 22.956 8.16849C22.4985 8.59685 22.1867 9.14553 22.0544 9.75527C21.407 12.7195 19.9999 15.233 17.8721 17.2252C14.3878 20.4873 10.1307 21.2742 9.65662 21.3533C9.04747 21.4454 8.48321 21.7192 8.02832 22.1451Z" fill="#4C2F1B"/>
<path d="M25.8446 25.1113C21.2907 29.3749 15.4109 31.4496 11.4234 31.9725C10.3606 32.1131 9.30848 31.8292 8.45692 31.1753C7.60565 30.5211 7.06264 29.5783 6.92598 28.5123C6.76081 27.2345 7.22272 25.9415 8.16454 25.0597C8.77782 24.4855 9.54324 24.1209 10.3779 24.0117C10.4431 24.0007 12.103 23.7722 14.2596 22.9658C16.6724 22.0638 18.7297 20.8291 20.3715 19.292C22.7506 17.0646 24.1822 14.2411 24.6216 10.9025C24.743 9.98441 25.1807 9.12839 25.8574 8.49478C26.7387 7.66969 27.9332 7.28632 29.129 7.44216C30.1891 7.58021 31.1383 8.12401 31.7917 8.97618C32.445 9.82835 32.7248 10.8793 32.5885 11.943C31.8991 17.1377 29.631 21.5663 25.8446 25.1113Z" fill="#FF6C4A"/>
<path d="M26.4932 25.804C21.7812 30.2156 15.6834 32.3667 11.548 32.909C10.2333 33.0798 8.93181 32.7298 7.88295 31.9229C6.83713 31.1186 6.16584 29.9504 5.99228 28.6342C5.78528 27.0572 6.3574 25.4643 7.52226 24.3737C8.2807 23.6636 9.22398 23.2157 10.25 23.0783C10.2637 23.0764 11.8532 22.8599 13.9312 22.0856C16.2296 21.2263 18.1803 20.0556 19.7289 18.6057C21.9423 16.5335 23.2733 13.9011 23.6849 10.7814C23.8309 9.64749 24.3729 8.59076 25.2118 7.80528C26.3032 6.78347 27.7759 6.31321 29.2517 6.51543C30.561 6.68464 31.7274 7.35733 32.538 8.40932C33.3463 9.4581 33.6951 10.7595 33.5212 12.0733C32.8067 17.487 30.4423 22.1067 26.4932 25.804ZM8.80951 25.7486C8.08868 26.4235 7.73348 27.4106 7.85882 28.3891C8.07715 30.07 9.62171 31.2586 11.3015 31.0396C15.1435 30.5367 20.8127 28.5351 25.2024 24.4253C28.8262 21.0325 30.9952 16.7914 31.6488 11.8192C31.7559 11.0066 31.5405 10.2005 31.0416 9.55034C30.5421 8.89902 29.8187 8.48154 29.0038 8.37509C28.0848 8.25699 27.172 8.55073 26.4991 9.18076C25.9804 9.66635 25.6445 10.3218 25.5536 11.0269C25.0866 14.5868 23.5598 17.5991 21.0159 19.9809C19.2836 21.6027 17.1216 22.904 14.5895 23.8489C12.2782 24.7104 10.5231 24.9426 10.5057 24.9446C9.86717 25.0295 9.28057 25.3076 8.80951 25.7486Z" fill="#4C2F1B"/>
<path d="M16.5143 26.8352C15.7841 27.5189 14.861 27.0636 14.2475 26.7647C13.6056 26.4484 13.269 26.3238 13.1115 26.4713C12.7295 26.829 12.1329 26.8096 11.7755 26.4279C11.4182 26.0462 11.4381 25.4497 11.8201 25.092C12.9359 24.0474 14.2752 24.6722 15.0293 25.0405C14.9387 24.353 14.8503 23.2979 15.6714 22.5293C16.4989 21.7545 17.5722 21.8867 18.2838 21.9682C18.413 21.9855 18.5842 22.007 18.7172 22.0147C18.7369 21.8078 18.7282 21.4893 18.7223 21.2816C18.7015 20.5408 18.6809 19.6995 19.2507 19.166C19.8437 18.6108 20.763 18.6922 21.5753 18.7675C21.6723 18.777 21.7821 18.7871 21.8958 18.7942C21.8931 18.7713 21.8905 18.755 21.8846 18.7352C21.775 18.0273 21.6133 16.954 22.377 16.239C22.9768 15.6774 23.8439 15.7637 24.6072 15.8474C24.6818 15.853 24.7723 15.8624 24.8628 15.8719C24.8565 15.8652 24.857 15.8586 24.8537 15.8551C24.4869 15.074 23.8047 13.6268 24.9105 12.5915C25.2925 12.2339 25.8891 12.2533 26.2465 12.6349C26.6038 13.0166 26.5839 13.6132 26.2019 13.9709C26.1406 14.1539 26.4255 14.7604 26.5653 15.0504C26.8865 15.7293 27.3262 16.6625 26.5925 17.3495C26.0059 17.8986 25.1585 17.8127 24.411 17.7329C24.2008 17.7099 23.8743 17.6768 23.679 17.6833C23.6628 17.8809 23.7187 18.2428 23.7505 18.4582C23.8492 19.0942 23.9583 19.8151 23.4156 20.3232C22.9096 20.797 22.1785 20.7277 21.4017 20.6572C21.1752 20.6368 20.8384 20.6062 20.6113 20.6122C20.5985 20.7999 20.6091 21.0599 20.6128 21.2388C20.6354 22.0215 20.6545 22.9083 20.0444 23.4795C19.4614 24.0253 18.682 23.932 18.0517 23.856C17.6054 23.8028 17.1432 23.7456 16.959 23.9181C16.8115 24.0562 16.8481 24.4175 16.9126 24.9164C16.9978 25.4845 17.1041 26.283 16.5143 26.8352Z" fill="#F9AF38"/>
<path d="M28.4872 28.6198C23.6721 33.1279 18.0951 34.7809 16.9728 34.9523C15.9123 35.1094 14.9466 34.9579 14.1826 34.5112C13.3103 34.0024 12.739 33.1235 12.5771 32.0377C12.3803 30.7326 12.8401 29.4102 13.8051 28.5067C14.3981 27.9515 15.134 27.5954 15.9401 27.4687C16.1095 27.4417 20.2786 26.7428 23.653 23.5835C25.6401 21.7231 26.9551 19.3735 27.5609 16.6014C27.737 15.8024 28.1407 15.0851 28.7372 14.5266C29.7026 13.6228 31.0488 13.2478 32.3381 13.5299C33.405 13.7624 34.2339 14.3185 34.7325 15.1332C35.2156 15.9249 35.3515 16.9029 35.1186 17.9634C34.038 22.8824 31.2951 25.9909 28.4872 28.6198Z" fill="#F4A360"/>
<path d="M29.1312 29.3105C23.448 34.6314 17.1649 35.8748 17.1022 35.8867C15.8356 36.0776 14.6572 35.8845 13.7034 35.3257C12.5771 34.664 11.8443 33.5456 11.6407 32.1766C11.3975 30.5652 11.9646 28.9362 13.1579 27.8189C13.8911 27.1325 14.7978 26.6897 15.7796 26.5385C15.815 26.534 19.833 25.8663 23.0052 22.8963C24.8477 21.1713 26.0687 18.9857 26.635 16.3994C26.8507 15.4135 27.3531 14.5283 28.0892 13.8391C29.2825 12.7218 30.9453 12.2631 32.5366 12.6117C33.8608 12.8992 34.8969 13.6019 35.5325 14.6436C36.1466 15.6499 36.3203 16.868 36.0353 18.1662C34.9089 23.3342 32.0512 26.5766 29.1312 29.3105ZM14.4458 29.1939C13.7096 29.8831 13.3551 30.8944 13.4972 31.899C13.7339 33.4812 15.0089 34.2941 16.8248 34.0225C16.8792 34.0141 22.6329 32.8078 27.8371 27.9353C30.5329 25.4114 33.168 22.4325 34.1897 17.7647C34.374 16.9272 34.2727 16.1735 33.8961 15.5862C33.5316 15.0179 32.9214 14.6271 32.1307 14.4551C31.1432 14.2409 30.1128 14.5257 29.3737 15.2176C28.9165 15.6457 28.6047 16.1944 28.4722 16.8044C27.8247 19.7687 26.4173 22.2824 24.2898 24.2743C20.8029 27.5389 16.5481 28.3236 16.0743 28.4024C15.4649 28.4942 14.9004 28.7683 14.4458 29.1939Z" fill="#4C2F1B"/>
<path d="M20.939 31.5842C20.8417 31.6753 20.7068 31.7261 20.5647 31.7087C20.3063 31.6806 20.1188 31.4474 20.1503 31.1854C20.3025 29.843 19.2118 29.1551 19.1671 29.128C18.9442 28.9907 18.8761 28.703 19.0103 28.477C19.1476 28.2543 19.4327 28.1825 19.6582 28.3162C19.7283 28.3575 21.3155 29.3342 21.0911 31.2908C21.0714 31.41 21.0192 31.5091 20.939 31.5842ZM27.3766 27.1905C27.3164 27.2469 27.2405 27.2866 27.1552 27.3097C26.8999 27.3663 26.6491 27.2056 26.593 26.9507C26.2972 25.594 25.1192 25.4843 25.1096 25.4806C24.8507 25.4591 24.657 25.2322 24.6787 24.9733C24.7002 24.7141 24.9276 24.5205 25.1865 24.542C25.8338 24.5955 27.1603 25.1253 27.515 26.7469C27.5513 26.9135 27.4939 27.0807 27.3766 27.1905Z" fill="#4C2F1B"/>
<path d="M32.2619 20.8185C32.2081 20.8688 32.142 20.9054 32.0698 20.9289C31.8177 21.0019 31.5596 20.854 31.4866 20.6017C31.1441 19.3896 29.8346 19.4151 29.7796 19.4164C29.5199 19.4211 29.3024 19.2224 29.2915 18.9622C29.2805 18.7025 29.4859 18.4848 29.7459 18.4739C30.4742 18.4455 31.9621 18.799 32.3973 20.3452C32.4437 20.5221 32.3859 20.7024 32.2619 20.8185Z" fill="#4C2F1B"/>
<path d="M33.3674 8.02763C33.2804 8.10907 33.1712 8.16729 33.0535 8.19592L31.8889 8.4698C31.532 8.55215 31.1723 8.34291 31.0704 7.99202L30.7476 6.87446C30.6749 6.62245 30.7486 6.35839 30.9396 6.17956C31.1609 5.97239 31.4868 5.93117 31.7479 6.08227L33.2359 6.92596C33.4273 7.03608 33.5539 7.22495 33.5822 7.44364C33.6069 7.65908 33.5282 7.87714 33.3674 8.02763Z" fill="#FF6C4A"/>
<path d="M31.2599 6.52083C31.3237 6.46113 31.4215 6.4384 31.514 6.49009L33.0018 7.33349C33.1386 7.41251 33.1459 7.58811 33.0454 7.6822C33.0186 7.70723 32.9855 7.72552 32.9464 7.73734L31.7818 8.01122C31.6674 8.03683 31.556 7.97144 31.5237 7.86335L31.2008 6.73925C31.1775 6.65423 31.2029 6.57421 31.2599 6.52083ZM30.6142 5.83117C30.2924 6.13243 30.1705 6.57939 30.2893 7.00199L30.6124 8.11928C30.7842 8.71213 31.3922 9.06636 31.9942 8.92365L33.1588 8.64977C33.3583 8.60131 33.5402 8.50644 33.6877 8.36833C33.956 8.11714 34.0917 7.74494 34.0453 7.38019C34.0021 7.0184 33.7825 6.69016 33.4639 6.51072L31.9759 5.66703C31.5366 5.41933 30.9862 5.48287 30.6142 5.83117Z" fill="#4C2F1B"/>
<path d="M6.65101 31.2479C6.49027 31.3984 6.26751 31.4626 6.05115 31.42C5.83509 31.3771 5.65799 31.2415 5.55738 31.0404L4.8134 29.5001C4.68303 29.2266 4.74237 28.9071 4.96688 28.6969C5.15789 28.5181 5.42595 28.4616 5.67291 28.5511L6.76681 28.9467C7.10967 29.0714 7.29564 29.4444 7.18972 29.7948L6.83982 30.9389C6.80328 31.0613 6.73829 31.1662 6.65101 31.2479Z" fill="#FF6C4A"/>
<path d="M5.28821 29.0474C5.34522 28.994 5.42371 28.9707 5.51033 29.0025L6.60394 29.3984C6.70967 29.4377 6.77061 29.5564 6.73451 29.6657L6.38461 30.8098C6.37051 30.8483 6.34982 30.8798 6.32308 30.9049C6.22258 30.999 6.04784 30.9802 5.97799 30.8384L5.23401 29.2981C5.19503 29.2035 5.22444 29.1071 5.28821 29.0474ZM4.64252 28.3577C4.27049 28.706 4.16461 29.2514 4.3892 29.7128L5.13318 31.2531C5.2943 31.586 5.60436 31.8235 5.96253 31.8903C6.32723 31.9577 6.70405 31.8495 6.97205 31.5986C7.11956 31.4605 7.2294 31.2827 7.28767 31.0893L7.63757 29.9452C7.81929 29.3536 7.50639 28.7237 6.92232 28.5163L5.82871 28.1204C5.4183 27.9642 4.96429 28.0565 4.64252 28.3577Z" fill="#4C2F1B"/>
</g>
<defs>
<clipPath id="clip0_1_3401">
<rect width="37.6959" height="21.5405" fill="white" transform="translate(0.613281 26.501) rotate(-43.1142)"/>
</clipPath>
</defs>
</svg>
