<svg width="20" height="36" viewBox="0 0 20 36" fill="none" xmlns="http://www.w3.org/2000/svg">
<g clip-path="url(#clip0_1_3356)">
<path d="M4.72224 14.3146C4.72224 14.3146 2.4792 10.2807 7.58348 7.84041C12.6881 5.40014 11.6826 2.90094 11.6441 1.36621C11.6441 1.36621 15.9363 2.86178 15.9363 7.32871C15.9363 12.5039 4.72224 14.3146 4.72224 14.3146Z" fill="white"/>
<path d="M12.764 3.0567C12.764 3.0567 13.8853 7.14993 11.7005 8.66488C9.51575 10.1802 6.36391 10.6326 5.2041 12.4236C5.2041 12.4236 6.84763 13.2698 9.45786 12.6007C12.0681 11.9316 15.9349 7.95663 15.9349 7.95663C15.9349 7.95663 17.5978 1.62005 12.764 3.0567Z" fill="#5A85FF"/>
<path d="M12.8029 3.17307C12.8029 3.17307 14.8525 5.79051 14.3691 7.54154C13.8858 9.29296 11.701 10.4342 11.3723 10.5129C11.0436 10.5916 6.32592 11.615 5.22363 12.4217C5.22363 12.4217 10.4052 12.3822 11.8556 11.5755C13.3251 10.7688 16.4766 8.64326 15.7613 6.95115C15.046 5.25904 14.3886 2.32683 12.8029 3.17307Z" fill="#507BE1"/>
<path d="M4.90369 15.1467C4.82711 15.1307 4.77631 15.1307 4.7229 15.1307C4.43266 15.1307 4.16596 14.9745 4.02701 14.7228C3.85743 14.3917 3.05584 12.6756 3.65647 10.7718C4.14355 9.24578 5.35752 8.00873 7.26364 7.09595C11.2171 5.22631 11.0572 3.5513 10.916 2.0736C10.8966 1.81813 10.8772 1.60068 10.8577 1.38322C10.8585 1.13345 10.981 0.877604 11.1865 0.716794C11.3235 0.617572 11.4942 0.560547 11.662 0.560547C11.752 0.560547 11.8398 0.576514 11.9227 0.608067C12.7504 0.928546 16.7621 2.71798 16.7621 7.36397C16.7621 13.087 5.76579 15.0053 4.90369 15.1467ZM12.5666 3.12476C12.5009 4.67697 11.9167 6.69906 7.94496 8.57708C6.45794 9.29292 5.53159 10.1943 5.19056 11.2569C4.96009 12.0027 5.05048 12.7247 5.16702 13.1995L5.21334 13.3881L5.40048 13.3497C6.39668 13.1444 15.1317 11.2318 15.1317 7.32557C15.1317 5.10731 13.9095 3.73264 12.8841 2.96965L12.5827 2.74535L12.5666 3.12476Z" fill="#4C2F1B"/>
<path d="M2.72955 19.9383C2.72955 19.9383 0.196646 15.5694 5.61058 13.4051C10.7537 11.339 11.9524 13.3656 15.6454 8.6626C16.1676 9.62669 18.0428 12.3031 15.4329 15.6679C14.2918 17.1441 5.41709 20.017 2.72955 19.9383Z" fill="white"/>
<path d="M15.4531 9.96338C15.4531 9.96338 16.2655 13.9779 9.15012 14.5485C4.39359 14.9226 2.65332 18.6615 2.65332 18.6615L13.616 16.7132L16.7869 13.5449L15.4531 9.96338Z" fill="#FF5C68"/>
<path d="M7.62275 34.265C7.1394 34.265 6.71395 33.9107 6.63663 33.4187L5.55377 26.8659C5.49587 26.5708 5.59262 26.2561 5.7861 26.0394C5.97922 25.8033 6.25003 25.6851 6.55931 25.6851H13.1913C13.4812 25.6851 13.7714 25.8227 13.9645 26.0394C14.158 26.2758 14.2353 26.5708 14.1969 26.8659L13.114 33.4187C13.0367 33.9107 12.6112 34.265 12.1279 34.265H7.62275Z" fill="#FFCD8A"/>
<path d="M7.62322 35.0843C6.7387 35.0843 5.96737 34.4217 5.82916 33.5435L4.74593 26.9887C4.65777 26.4322 4.80308 25.8828 5.14448 25.4833C5.50195 25.0651 6.0107 24.8252 6.54036 24.8252H13.1724C13.7024 24.8252 14.2112 25.0651 14.5683 25.4833C14.9089 25.8995 15.0553 26.4493 14.9668 26.9891L13.884 33.5416C13.7259 34.4342 12.971 35.0839 12.0895 35.0839H7.62322V35.0843ZM7.45401 33.4245H12.2584L13.4084 26.4652H6.30392L7.45401 33.4245Z" fill="#4C2F1B"/>
<path d="M15.1266 28.5046L9.92559 28.7939H9.80382L4.6028 28.5043C4.0948 28.4837 3.64768 28.0906 3.56663 27.5736L2.69332 22.9215C2.57155 22.2186 3.09972 21.5571 3.79037 21.5571H15.9394C16.6506 21.5571 17.1788 22.2186 17.0365 22.9215L16.1632 27.574C16.0612 28.091 15.6346 28.4632 15.1266 28.5046Z" fill="#FFCD8A"/>
<path d="M1.76367 24.2875L2.23395 23.6139L10.5397 29.6216L10.0695 30.2953L1.76367 24.2875ZM4.49006 23.6941L4.96034 23.0204L13.2658 29.0282L12.7955 29.7018L4.49006 23.6941ZM7.60717 23.1904L8.07781 22.5167L16.3832 28.5245L15.913 29.1981L7.60717 23.1904ZM9.77102 21.8704L10.2413 21.1968L17.4437 26.4066L16.973 27.0802L9.77102 21.8704Z" fill="#FFBB71"/>
<path d="M8.67621 29.637L16.9828 23.6304L17.453 24.3044L9.14648 30.311L8.67621 29.637ZM5.95953 29.0238L16.2361 21.5924L16.7063 22.2664L6.4298 29.6975L5.95953 29.0238ZM2.81254 28.5334L11.1187 22.5268L11.589 23.2004L3.28282 29.207L2.81254 28.5334ZM1.76367 26.4204L8.96681 21.2114L9.43709 21.8855L2.23395 27.0945L1.76367 26.4204Z" fill="#FFBB71"/>
<path d="M9.67313 30.4414L4.73433 30.1666C3.41428 30.1115 2.31461 29.1348 2.05799 27.7921L1.22689 23.3651C1.06552 22.5264 1.29039 21.6475 1.84321 20.9537C2.40836 20.2671 3.19838 19.8877 4.06609 19.8877H15.6481C16.5072 19.8877 17.3152 20.2842 17.8086 20.9484C18.3708 21.6129 18.5938 22.4903 18.429 23.3651L17.5976 27.7928C17.3447 29.1166 16.2443 30.0928 14.9212 30.1666L9.97681 30.4414H9.67313ZM4.08514 21.5273C3.71833 21.5273 3.3702 21.6946 3.12927 21.987C2.88162 22.2877 2.77778 22.6804 2.84427 23.0647L3.67649 27.4948C3.76651 28.0677 4.2719 28.522 4.85087 28.5456L9.79752 28.8208L9.92452 28.8212L14.8854 28.5452C15.4647 28.498 15.9443 28.0669 16.0564 27.4963L16.8879 23.0674C16.9641 22.6914 16.8699 22.3017 16.6294 22.0014C16.3881 21.7003 16.0302 21.5273 15.6477 21.5273H4.08514Z" fill="#4C2F1B"/>
<path d="M15.4712 10.5142C15.4712 10.5142 15.9161 13.4068 14.06 14.745C11.7785 16.7523 5.24325 16.5162 3.61914 17.7951C3.61914 17.7951 13.8665 18.0118 15.0652 15.0203C16.2639 12.0291 16.6505 10.6518 15.4712 10.5142Z" fill="#F93D53"/>
<path d="M2.71211 20.7785C2.44167 20.7785 2.19327 20.6268 2.03079 20.3622C2.01174 20.3333 0.836988 18.2808 1.56686 16.1082C2.06739 14.5985 3.32283 13.4352 5.29805 12.6502C7.26879 11.8712 8.72331 11.677 9.89171 11.5207C11.8897 11.2592 12.9886 11.1151 15.1454 8.3764C15.2952 8.18251 15.5148 8.07227 15.749 8.07227C15.7782 8.07227 15.8073 8.07379 15.8361 8.07759C16.1143 8.0947 16.3541 8.2555 16.4737 8.49805C16.5024 8.54481 16.5192 8.57522 16.5361 8.60526C16.5581 8.64441 16.5805 8.68319 16.6022 8.71702C17.2125 9.77198 18.8493 12.5993 16.0703 16.1926C14.6561 18.0155 5.62265 20.7789 2.80885 20.7789H2.71211V20.7785ZM15.4256 10.5494C13.3842 12.724 11.8673 12.919 10.1117 13.1448C8.86899 13.295 7.60945 13.4873 5.88673 14.1807C4.37506 14.7757 3.43152 15.6052 3.08377 16.6461C2.84807 17.3175 2.87347 18.1037 3.16071 18.9799L3.21077 19.1332L3.36877 19.1183C6.47541 18.8256 13.94 16.253 14.779 15.1859C16.3844 13.0942 16.1065 11.5781 15.7576 10.6194L15.6467 10.3145L15.4256 10.5494Z" fill="#4C2F1B"/>
<path d="M16.4401 14.1343C16.4401 14.1343 15.2799 16.7711 10.7363 17.696C7.08208 18.4241 1.61024 17.9519 1.59082 21.5334C1.59082 24.9378 15.5119 24.3474 17.2327 21.2776C19.7272 16.8106 16.4401 14.1343 16.4401 14.1343Z" fill="white"/>
<path d="M2.53809 21.5532C4.72286 19.5068 10.4846 20.7663 12.5147 20.0181C15.2601 18.9947 16.4397 18.6602 16.6717 15.5903C16.6717 15.5903 20.1907 19.7425 15.6856 22.5367C13.0753 24.1113 4.10392 25.2328 2.53809 21.5532Z" fill="#FFF383"/>
<path d="M16.7087 15.5737C16.7087 15.5737 20.6726 23.8583 3.61914 22.3433C3.63856 22.3429 22.5481 25.7865 16.7087 15.5737Z" fill="#F6E259"/>
<path d="M7.66123 24.5749C5.70356 24.5749 4.07609 24.3544 2.95401 23.9377C1.53311 23.4412 0.78418 22.6094 0.78418 21.5313C0.78418 18.0672 4.66702 17.6183 7.78674 17.2571L7.87676 17.2465C8.96336 17.1362 9.84264 17.013 10.5606 16.8701C14.39 16.0946 15.8998 13.9915 16.0298 13.6562L16.013 13.7212C16.1351 13.5041 16.3346 13.3574 16.5748 13.3083C16.6181 13.2992 16.6625 13.2954 16.7066 13.2954C16.8908 13.2954 17.0846 13.3703 17.2389 13.5015C18.6893 14.7697 20.6825 18.1345 17.8294 21.7784C16.447 23.5956 11.5594 24.5749 7.66123 24.5749ZM16.6252 15.5836C15.6581 16.588 13.8786 17.9087 10.8908 18.498C9.98795 18.6774 8.95626 18.7964 8.06614 18.8888C4.6517 19.2746 2.41464 19.667 2.41464 21.5309C2.41464 21.9191 3.1038 22.2243 3.51468 22.3722C4.51238 22.7288 5.91573 22.9174 7.57345 22.9174C11.0521 22.9174 15.6208 22.0282 16.6147 20.752C18.3666 18.4866 17.5657 16.5587 16.9326 15.6114L16.7955 15.4061L16.6252 15.5836Z" fill="#4C2F1B"/>
</g>
<defs>
<clipPath id="clip0_1_3356">
<rect width="18.4949" height="34.5239" fill="white" transform="translate(0.78418 0.560547)"/>
</clipPath>
</defs>
</svg>
