<svg width="30" height="30" viewBox="0 0 30 30" fill="none" xmlns="http://www.w3.org/2000/svg">
<g clip-path="url(#clip0_1_3418)">
<path d="M1.45801 17.3595V20.6097H27.2165C27.9406 20.6097 28.4931 17.3022 28.4931 17.3022L1.45801 17.3595Z" fill="#F2C05A"/>
<path d="M1.45965 21.4048C1.01323 21.4048 0.663086 21.0555 0.663086 20.6098V17.3593C0.663086 16.9211 1.02041 16.5646 1.45965 16.5646L28.514 16.5073C28.7388 16.5073 28.9715 16.6138 29.1066 16.7785C29.2619 16.9644 29.3216 17.1904 29.2763 17.4163C28.6161 21.4048 27.6146 21.4048 27.2377 21.4048H1.45965ZM26.9956 19.834L27.0491 19.7268C27.1698 19.4859 27.3092 19.0585 27.5011 18.3406L27.5663 18.0967L2.27546 18.1547V19.834H2.4693H26.9956Z" fill="#4C2F1B"/>
<path d="M21.5586 1.2784C21.0062 0.993207 20.3202 1.06939 19.863 1.48774L1.47754 17.3594H4.90722V26.5023C4.90722 27.5858 5.7834 28.4599 6.86941 28.4599C7.95542 28.4599 8.83161 27.5858 8.83161 26.5023V17.3594H10.8702V21.6742C10.8702 22.7765 11.7845 23.6891 12.8898 23.6891C13.9947 23.6891 14.9094 22.7768 14.9094 21.6742V17.3594H17.8245C18.1103 18.4429 19.0821 19.2412 20.2442 19.2412C21.4066 19.2412 22.3969 18.4429 22.6639 17.3594L28.5319 17.3405C30.3795 6.82898 24.0544 2.53314 21.5586 1.2784Z" fill="#FFDE8A"/>
<path d="M15.5004 8.2004C16.6243 8.2004 17.52 7.30704 17.52 6.18547C17.52 5.40606 17.0818 4.75981 16.453 4.41797L13.6143 6.86981C13.9001 7.64921 14.6239 8.2004 15.5004 8.2004Z" fill="#FF5C5C"/>
<path d="M15.502 8.59855C14.4921 8.59855 13.5777 7.9523 13.2347 7.00198C13.1776 6.84994 13.2155 6.67901 13.3489 6.56507L16.1876 4.1129C16.3019 3.99895 16.4924 3.97974 16.6256 4.05593C17.4257 4.47428 17.9022 5.29145 17.9022 6.16592C17.9217 7.51507 16.8357 8.59855 15.502 8.59855ZM14.092 6.98309C14.3778 7.49651 14.9114 7.81947 15.502 7.81947C16.3975 7.81947 17.1216 7.09737 17.1216 6.20369C17.1216 5.6906 16.8739 5.21527 16.4735 4.91119L14.092 6.98309Z" fill="#4C2F1B"/>
<path d="M22.1887 9.92744C21.9599 10.897 22.5887 11.8854 23.5602 12.0944C24.2461 12.2464 24.9128 11.9993 25.3322 11.5051L23.7319 8.521C22.9888 8.61606 22.36 9.14804 22.1887 9.92744Z" fill="#FF5C5C"/>
<path d="M23.9599 12.5311C23.8075 12.5311 23.6362 12.5122 23.4838 12.4741C22.3025 12.2082 21.5405 11.0296 21.8071 9.83218C22.0166 8.93882 22.7597 8.25448 23.6933 8.14054C23.8457 8.12165 24.0173 8.19751 24.0934 8.34955L25.6937 11.3148C25.77 11.4668 25.7508 11.6378 25.6366 11.752C25.1983 12.2459 24.5887 12.5311 23.9599 12.5311ZM22.5691 10.0031C22.4928 10.3834 22.5502 10.7633 22.7594 11.0674C22.9692 11.3903 23.274 11.6186 23.6548 11.6947C24.0741 11.7898 24.5121 11.6759 24.855 11.4095L23.5406 8.95771C23.0455 9.12863 22.6833 9.50857 22.5691 10.0031Z" fill="#4C2F1B"/>
<path d="M6.85279 29.2347C5.33146 29.2347 4.09339 27.9998 4.09339 26.4817V18.1338H1.46092C1.12154 18.1338 0.834702 17.9323 0.730278 17.6201C0.604969 17.3059 0.696993 16.9595 0.955443 16.7469L19.3445 0.872312C19.7707 0.509631 20.3111 0.309082 20.8655 0.309082C21.2307 0.309082 21.5828 0.392427 21.9124 0.557164C24.1451 1.68004 31.2773 6.21518 29.2958 17.4195C29.2354 17.7956 28.9 18.0769 28.5149 18.0769L23.1952 18.0964L23.1413 18.2006C22.5738 19.2968 21.4572 19.9778 20.2272 19.9778C18.9976 19.9778 17.881 19.2971 17.3131 18.2006L17.2587 18.0957H15.6894V21.6158C15.6894 23.1547 14.4346 24.4065 12.8921 24.4065C11.3496 24.4065 10.0952 23.1547 10.0952 21.6161V18.0961H9.6308V26.4439C9.61318 27.9819 8.36694 29.2347 6.85279 29.2347ZM20.8459 1.90012C20.6665 1.90012 20.5004 1.96328 20.3653 2.08309L3.58856 16.5633H4.89027C5.11119 16.5633 5.30373 16.6418 5.43197 16.7844C5.58893 16.9413 5.66791 17.1373 5.66791 17.3583V26.5012C5.66791 27.153 6.19949 27.6833 6.85247 27.6833C7.51686 27.6833 8.03703 27.1641 8.03703 26.5012V17.358C8.03703 16.9198 8.39435 16.5633 8.83359 16.5633H10.8721C11.0927 16.5633 11.2853 16.6418 11.4138 16.7844C11.5708 16.9413 11.6498 17.1373 11.6498 17.3583V21.6731C11.6498 22.3457 12.1983 22.893 12.8725 22.893C13.5467 22.893 14.0953 22.3457 14.0953 21.6731V17.3391C14.0953 16.9006 14.4526 16.5441 14.8918 16.5441H17.8069C18.1711 16.5441 18.4785 16.784 18.5718 17.1409C18.7666 17.8975 19.4473 18.4262 20.2266 18.4262C21.0058 18.4262 21.6866 17.8975 21.8814 17.1405C21.9747 16.7844 22.2821 16.5444 22.646 16.5444L27.8446 16.5249L27.8678 16.3588C29.1656 7.08998 23.6315 3.21509 21.1918 1.97924C21.0737 1.92552 20.9598 1.90012 20.8459 1.90012Z" fill="#4C2F1B"/>
<path d="M28.5123 17.3033C30.4177 6.60189 23.7874 2.36301 21.4059 1.20367C20.9295 0.975448 20.3577 1.05163 19.9577 1.3938L18.5098 2.64853C21.6725 5.00531 26.988 9.35845 25.3685 17.3228L28.5123 17.3033Z" fill="#FFB07B"/>
<path d="M25.37 18.098C25.1386 18.098 24.9092 17.989 24.7571 17.8063C24.6054 17.625 24.5424 17.3802 24.5884 17.1506C25.9831 10.2714 22.0493 6.27444 18.0175 3.27207C17.8269 3.14021 17.7114 2.91687 17.6948 2.65479C17.6801 2.41843 17.7796 2.19282 17.9682 2.03622L19.4191 0.778881C19.8064 0.445175 20.2962 0.26123 20.7981 0.26123C21.1173 0.26123 21.4354 0.337739 21.719 0.48229C23.9994 1.59182 31.2719 6.08854 29.2562 17.4404C29.1958 17.8167 28.8603 18.098 28.4756 18.098H25.37ZM20.8092 1.85227C20.6777 1.85227 20.5485 1.89981 20.4444 1.98641L19.7519 2.6001L19.9347 2.74302C21.7621 4.17486 27.3233 8.53224 26.3205 16.2898L26.2925 16.508H27.8252L27.8484 16.3413C29.1703 6.89562 23.523 3.09789 21.0337 1.90339C20.9675 1.8705 20.8892 1.85227 20.8092 1.85227Z" fill="#4C2F1B"/>
<path d="M25.3701 17.3022C25.3701 17.3022 25.1985 19.393 24.4365 20.6097H27.237C27.237 20.6097 28.2278 20.0774 28.5136 17.3022H25.3701Z" fill="#E2803D"/>
<path d="M24.4378 21.4061C24.1445 21.4061 23.8883 21.2528 23.7519 20.9959C23.6093 20.7423 23.6148 20.4392 23.764 20.2005C24.3125 19.3091 24.5383 17.7266 24.5742 17.2421C24.6039 16.8414 24.9459 16.5278 25.3525 16.5278H28.496C28.7293 16.5278 28.9382 16.6196 29.07 16.7801C29.2361 16.9628 29.305 17.1718 29.2753 17.3922C28.9522 20.4467 27.8114 21.1955 27.5859 21.3146C27.4945 21.3742 27.365 21.4061 27.2384 21.4061H24.4378ZM26.0574 18.2543C25.982 18.6307 25.888 19.0992 25.7386 19.5849L25.6616 19.8353H26.9394L26.9975 19.7526C27.1287 19.5654 27.3767 19.1324 27.5611 18.3357L27.6159 18.0987H26.0887L26.0574 18.2543Z" fill="#4C2F1B"/>
<path d="M10.2432 13.3285C10.2432 14.0529 10.8315 14.6399 11.5576 14.6399C12.2837 14.6399 12.872 14.0529 12.872 13.3285C12.872 12.6041 12.2837 12.0171 11.5576 12.0171C10.8315 12.0171 10.2432 12.6041 10.2432 13.3285Z" fill="#FF5C5C"/>
<path d="M11.5576 15.0405C10.624 15.0405 9.84277 14.2803 9.84277 13.33C9.84277 12.3797 10.6047 11.6191 11.5576 11.6191C12.5102 11.6191 13.2721 12.3793 13.2721 13.33C13.2721 14.28 12.5102 15.0405 11.5576 15.0405ZM11.5576 12.4174C11.0433 12.4174 10.6432 12.8358 10.6432 13.3297C10.6432 13.8239 11.0623 14.2419 11.5576 14.2419C12.053 14.2419 12.472 13.8236 12.472 13.3297C12.472 12.8355 12.0719 12.4174 11.5576 12.4174Z" fill="#4C2F1B"/>
<path d="M18.0368 14.644H15.2741C15.1217 14.644 14.9883 14.5109 14.9883 14.3589V13.7315C14.9883 13.5794 15.1217 13.4463 15.2741 13.4463H18.0368C18.1892 13.4463 18.3227 13.5794 18.3227 13.7315V14.3589C18.3416 14.5109 18.2081 14.644 18.0368 14.644Z" fill="#3DE25C"/>
<path d="M17.731 15.0418H15.5972C15.0447 15.0418 14.6064 14.6045 14.6064 14.0534C14.6064 13.5022 15.0447 13.0649 15.5972 13.0649H17.731C18.2835 13.0649 18.7217 13.5022 18.7217 14.0534C18.7217 14.6045 18.2835 15.0418 17.731 15.0418ZM15.5972 13.844C15.483 13.844 15.3877 13.9391 15.3877 14.053C15.3877 14.1673 15.483 14.2624 15.5972 14.2624H17.731C17.8452 14.2624 17.9405 14.1673 17.9405 14.053C17.9405 13.9391 17.8452 13.844 17.731 13.844H15.5972Z" fill="#4C2F1B"/>
<path d="M19.9407 11.7709L18.4735 10.1744C18.4164 10.1174 18.4164 10.0223 18.4735 9.96534L19.1402 9.35718C19.1973 9.30021 19.2926 9.30021 19.35 9.35718L20.8172 10.9538C20.8743 11.0107 20.8743 11.1058 20.8172 11.1628L20.1505 11.7709C20.112 11.8282 19.9978 11.8282 19.9407 11.7709Z" fill="#3DE25C"/>
<path d="M20.0739 12.1486H20.036C19.8455 12.1486 19.6738 12.0535 19.5407 11.9203L18.2833 10.5709C18.1499 10.4377 18.0928 10.2479 18.0928 10.0578C18.0928 9.86796 18.1881 9.69671 18.3215 9.56356L18.7405 9.1833C18.874 9.05014 19.0646 8.99316 19.2551 8.99316C19.4457 8.99316 19.617 9.08823 19.7505 9.22139L21.0078 10.5709C21.1413 10.704 21.1984 10.8941 21.1984 11.0843C21.1984 11.2744 21.1031 11.4453 20.9697 11.5785L20.5507 11.9587C20.4169 12.0724 20.2452 12.1486 20.0739 12.1486ZM18.9308 10.0766L20.0739 11.3122L20.3787 11.027L19.2356 9.79145L18.9308 10.0766Z" fill="#4C2F1B"/>
</g>
<defs>
<clipPath id="clip0_1_3418">
<rect width="28.9754" height="28.9754" fill="white" transform="translate(0.663086 0.261719)"/>
</clipPath>
</defs>
</svg>
